<svg xmlns="http://www.w3.org/2000/svg" xmlns:xlink="http://www.w3.org/1999/xlink" id="Camada_1" x="0px" y="0px" viewBox="0 0 141.7 69.8" style="enable-background:new 0 0 141.7 69.8;" xml:space="preserve"><style type="text/css">	.st0{fill:#CCB57F;}</style><g>	<path class="st0" d="M17.5,26.1c-4-3.7-9-8.4-15-13.9c-0.1-0.1-0.4,0-0.4,0.2v31.9c0,0.3-0.2,0.5-0.5,0.5H1.4  c-0.2,0-0.3-0.1-0.3-0.3V2c0-0.3,0.2-0.5,0.5-0.4c0.5,0.1,0.9,0.4,1.2,0.7c6.1,5.9,12.7,12,19.7,18.4c4,3.7,9,8.4,15,13.9  c0.1,0.1,0.4,0,0.4-0.2V2.5c0-0.3,0.2-0.5,0.5-0.5h0.2c0.2,0,0.3,0.1,0.3,0.3v42.4c0,0.3-0.3,0.5-0.5,0.4c-0.5-0.1-0.9-0.4-1.2-0.7  C31,38.6,24.4,32.5,17.5,26.1"></path>	<path class="st0" d="M74.8,44.3c0,0.2-0.1,0.3-0.3,0.3h-6.9c-0.2,0-0.3-0.1-0.3-0.3V2.4c0-0.2,0.1-0.3,0.3-0.3h6.9  c0.2,0,0.3,0.1,0.3,0.3V44.3z"></path>	<path class="st0" d="M119,2.1h-16c-0.2,0-0.3,0.1-0.3,0.3v41.9c0,0.2,0.1,0.3,0.3,0.3h16c12,0,21.6-9.1,21.6-20.3v-1.9  C140.6,11.2,130.9,2.1,119,2.1 M132.5,25.7c0,10-7.2,18.1-16.1,18.1h-5.8c-0.3,0-0.5-0.2-0.5-0.5V3.5c0-0.3,0.2-0.5,0.5-0.5h5.8  c8.9,0,16.1,8.1,16.1,18.1V25.7z"></path>	<path class="st0" d="M25.6,67.7l4.4-9l4.4,9h-1.8L31.3,65h-3.9L26,67.7H25.6z M27.5,64.7h3.6L29.3,61L27.5,64.7z"></path>	<polygon class="st0" points="36.9,58.9 38.6,58.9 38.6,67.5 43.1,67.5 43.1,67.7 36.9,67.7  "></polygon>	<path class="st0" d="M45.6,67.7v-8.8h3.3c2.5,0,3.7,1.2,3.7,2.5c0,1.5-1.3,2.5-3.7,2.5h-1.7v3.8H45.6z M47.3,59.2v4.5h1.6  c1.2,0,2.1-0.7,2.1-2.2c0-1.4-0.7-2.2-2.1-2.2H47.3z"></path>	<polygon class="st0" points="57.1,58.9 57.1,63.2 62.3,63.2 62.3,58.9 63.9,58.9 63.9,67.7 62.3,67.7 62.3,63.5 57.1,63.5   57.1,67.7 55.5,67.7 55.5,58.9  "></polygon>	<path class="st0" d="M66.5,67.7l4.4-9l4.4,9h-1.8L72.1,65h-3.9l-1.3,2.8H66.5z M68.3,64.7H72L70.2,61L68.3,64.7z"></path>	<polygon class="st0" points="77.2,58.9 80.7,65.8 84.3,58.9 84.6,58.9 80,67.9 75.4,58.9  "></polygon>	<rect x="87.2" y="58.9" class="st0" width="1.6" height="8.8"></rect>	<polygon class="st0" points="92.2,58.9 93.8,58.9 93.8,67.5 98.4,67.5 98.4,67.7 92.2,67.7  "></polygon>	<polygon class="st0" points="100.9,58.9 102.5,58.9 102.5,67.5 107.1,67.5 107.1,67.7 100.9,67.7  "></polygon>	<polygon class="st0" points="116,58.9 116,59.2 111.2,59.2 111.2,63.1 115.2,63.1 115.2,63.4 111.2,63.4 111.2,67.5 116,67.5   116,67.7 109.6,67.7 109.6,58.9  "></polygon></g><g></g><g></g><g></g><g></g><g></g><g></g></svg>